<svg id="Capa_1" enable-background="new 0 0 512 512" height="512" viewBox="0 0 512 512" width="512" xmlns="http://www.w3.org/2000/svg"><g><path d="m457 162h-35.6l-123.055-101.781c1.715-4.756 2.655-9.879 2.655-15.219 0-24.813-20.187-45-45-45s-45 20.187-45 45c0 5.34.94 10.463 2.655 15.219l-123.055 101.781h-35.6c-30.327 0-55 24.673-55 55v240c0 30.327 24.673 55 55 55h402c30.327 0 55-24.673 55-55v-240c0-30.327-24.673-55-55-55zm-201-132c8.271 0 15 6.729 15 15s-6.729 15-15 15-15-6.729-15-15 6.729-15 15-15zm-23.36 53.448c6.814 4.156 14.812 6.552 23.36 6.552s16.546-2.397 23.36-6.552l94.97 78.552h-236.66zm249.36 373.552c0 13.785-11.215 25-25 25h-402c-13.785 0-25-11.215-25-25v-240c0-13.785 11.215-25 25-25h402c13.785 0 25 11.215 25 25z"/><path d="m149.986 262h-33.986c-3.983 0-7.803 1.584-10.617 4.403s-4.391 6.642-4.383 10.625c0 .001.087 46.158.087 59.84 0 16.502.155 59.751.156 60.186.014 3.979 1.609 7.789 4.433 10.592 2.81 2.79 6.609 4.354 10.567 4.354h.057c1.027-.004 25.261-.097 34.943-.267 18.473-.322 34.915-8.681 46.295-23.534 10.258-13.389 15.908-31.571 15.908-51.199 0-44.859-25.503-75-63.46-75zm.732 119.737c-4.485.079-12.403.142-19.526.187-.045-14.202-.105-34.813-.105-45.056 0-8.62-.035-30.118-.06-44.868h18.959c24.669 0 33.459 23.246 33.459 45 .001 21.984-10.118 44.344-32.727 44.737z"/><path d="m404.183 264.732c-6.944-4.521-16.235-2.555-20.754 4.388l-25.463 39.117-25.752-39.438c-4.529-6.936-13.824-8.889-20.76-4.358-6.937 4.529-8.888 13.824-4.359 20.761l35.879 54.949-.139 56.813c-.02 8.285 6.679 15.017 14.963 15.037h.037c8.267 0 14.979-6.691 15-14.963l.139-56.865 35.598-54.685c4.519-6.944 2.554-16.236-4.389-20.756z"/><path d="m256 262c-8.284 0-15 6.716-15 15v120c0 8.284 6.716 15 15 15s15-6.716 15-15v-120c0-8.284-6.716-15-15-15z"/></g></svg>