<svg id="Layer_1" enable-background="new 0 0 66 66" height="512" viewBox="0 0 66 66" width="512" xmlns="http://www.w3.org/2000/svg"><g><path d="m59 59.7h-52c-2.8 0-5-2.2-5-5v-43.4c0-2.8 2.2-5 5-5h52c2.8 0 5 2.2 5 5v43.3c0 2.8-2.2 5.1-5 5.1zm-52-51.4c-1.7 0-3 1.3-3 3v43.4c0 1.7 1.3 3 3 3h52c1.7 0 3-1.4 3-3.1v-43.3c0-1.7-1.3-3-3-3z"/></g><g><g><path d="m55.3 17.4c-1.7 0-3-1.3-3-3s1.3-3 3-3 3 1.3 3 3-1.3 3-3 3zm0-4c-.6 0-1 .4-1 1s.4 1 1 1 1-.4 1-1-.4-1-1-1z"/></g><g><path d="m46.7 17.4c-1.7 0-3-1.3-3-3s1.3-3 3-3 3 1.3 3 3-1.3 3-3 3zm0-4c-.6 0-1 .4-1 1s.4 1 1 1 1-.4 1-1-.4-1-1-1z"/></g><g><path d="m38.1 17.4c-1.7 0-3-1.3-3-3s1.3-3 3-3 3 1.3 3 3-1.3 3-3 3zm0-4c-.6 0-1 .4-1 1s.4 1 1 1 1-.4 1-1-.4-1-1-1z"/></g><g><path d="m29.8 15.4h-20.5c-.6 0-1-.4-1-1s.4-1 1-1h20.5c.6 0 1 .4 1 1s-.4 1-1 1z"/></g><g><path d="m13.6 44.5c-.1 0-.1 0-.2 0-.5-.1-.9-.6-.8-1.2l1.4-8.1c.1-.5.6-.9 1.2-.8.5.1.9.6.8 1.2l-1.4 8.1c-.1.5-.5.8-1 .8z"/></g><g><path d="m25.7 44.5c-.5 0-.9-.3-1-.8l-1.4-8.1c-.1-.5.3-1.1.8-1.2.6-.1 1.1.3 1.2.8l1.4 8.1c.1.5-.3 1.1-.8 1.2-.1 0-.1 0-.2 0z"/></g><g><path d="m19.5 27.3c-2.8 0-5-2.2-5-4.9s2.2-4.9 5-4.9 5 2.2 5 4.9-2.2 4.9-5 4.9zm0-7.8c-1.7 0-3 1.3-3 2.9s1.3 2.9 3 2.9 3-1.3 3-2.9-1.3-2.9-3-2.9z"/></g><g><path d="m24.8 44.6h-10.5c-2.4 0-4.5-1.3-5.5-3.5-.6-1.2-.8-2.8-.5-4.1l1.4-5.7c.5-2 2.3-3.5 4.4-3.5.1 0 .2 0 .3.1 3.4 1.1 6.9 1.1 10.3 0 .1 0 .2-.1.3-.1 2.1 0 3.9 1.4 4.4 3.5l1.4 5.6c.5 1.9 0 3.9-1.2 5.4s-2.9 2.3-4.8 2.3zm-10.8-14.8c-1.1.1-2 .8-2.3 1.9l-1.4 5.7c-.2.9-.1 2 .3 2.8.7 1.5 2.1 2.3 3.7 2.3h10.5c1.3 0 2.4-.6 3.2-1.6s1.1-2.4.8-3.7l-1.4-5.6c-.3-1.1-1.2-1.9-2.3-1.9-3.7 1.3-7.4 1.3-11.1.1z"/></g><g><path d="m31.1 54.6h-22.4c-.6 0-1-.4-1-1v-6c0-.6.4-1 1-1h22.4c.6 0 1 .4 1 1v6c0 .6-.4 1-1 1zm-21.4-2h20.4v-4h-20.4z"/></g><g><path d="m56.2 23.4h-18.4c-.6 0-1-.4-1-1s.4-1 1-1h18.4c.6 0 1 .4 1 1s-.4 1-1 1z"/></g><g><path d="m56.2 28.5h-18.4c-.6 0-1-.4-1-1s.4-1 1-1h18.4c.6 0 1 .4 1 1s-.4 1-1 1z"/></g><g><path d="m56.2 33.6h-18.4c-.6 0-1-.4-1-1s.4-1 1-1h18.4c.6 0 1 .4 1 1s-.4 1-1 1z"/></g><g><path d="m56.2 38.8h-18.4c-.6 0-1-.4-1-1s.4-1 1-1h18.4c.6 0 1 .4 1 1s-.4 1-1 1z"/></g><g><path d="m56.2 43.9h-18.4c-.6 0-1-.4-1-1s.4-1 1-1h18.4c.6 0 1 .4 1 1s-.4 1-1 1z"/></g><g><path d="m56.2 49h-18.4c-.6 0-1-.4-1-1s.4-1 1-1h18.4c.6 0 1 .4 1 1s-.4 1-1 1z"/></g><g><path d="m56.2 54.1h-18.4c-.6 0-1-.4-1-1s.4-1 1-1h18.4c.6 0 1 .4 1 1s-.4 1-1 1z"/></g><g><path d="m12.4 51.6h-.8c-.6 0-1-.4-1-1s.4-1 1-1h.8c.6 0 1 .4 1 1s-.4 1-1 1z"/></g><g><path d="m15.9 51.6h-.9c-.6 0-1-.4-1-1s.4-1 1-1h.9c.6 0 1 .4 1 1s-.4 1-1 1z"/></g><g><path d="m19.3 51.6h-.8c-.6 0-1-.4-1-1s.4-1 1-1h.8c.6 0 1 .4 1 1s-.4 1-1 1z"/></g></g></svg>