<svg id="e7df28c8-bddb-4c4e-a811-0fb90e2ec126" height="512" viewBox="0 0 64 64" width="512" xmlns="http://www.w3.org/2000/svg" data-name="Layer 1"><path d="m33.4253 59.4743a177.63 177.63 0 0 1 -22.8273-1.32c-1.6686-.2787-1.7318-2.2535-1.8514-3.6354a9.5849 9.5849 0 0 1 1.6726-6.41c2.771-3.6289 7.0665-5.958 11.3242-7.71 1.5518-.6385-1.6463-3.3054-2.2252-4.12a17.8352 17.8352 0 0 1 -2.4647-3.7652c-5.966-11.5263 4.0429-29.0286 17.2255-27.94 4.4356.3663 7.603 3.3154 9.9423 6.1 6.0846 7.1463 5.16 18.7375-1.2036 25.4114-1.3945 1.4268-3.0872 3.0016-.2019 3.94 4.1328 1.7182 8.7587 3.9215 11.2494 7.7237 1.8919 2.8879 2.0384 10.73-2.7592 11.0708q-8.926.6682-17.8807.6547zm-18.2607-8.7816c-.6249.6745-1.3177 1.9551-.3541 2.5389.8845.4422 5.4464.6 15.8419.7426 7.0507.097 11.2941.097 15.6789-.0916.9468-.0408 2.1494.107 2.6875-.5658.7088-.8863-.4682-3.13-1.382-4.0953a18.2836 18.2836 0 0 0 -3.5814-2.6087 34.7005 34.7005 0 0 0 -5.5954-2.8755c-1.8584-.75-2.9981-1.4088-3.2394-3.3175-.387-4.7136 4.2459-7.5548 6.4905-11.1959 1.6031-2.5931 1.6041-6.473 1.1316-9.43a12.5555 12.5555 0 0 0 -4.5727-7.5718c-7.4272-6.1521-16.0919 3.1713-17.0283 10.4285-.5192 3.3954-.1 7.5237 2.66 9.8968 2.3986 2.0623 4.4982 5.69 3.4958 8.9345-.7085 2.2931-2.83 3.4734-4.76 4.5891-2.4792 1.5676-5.3581 2.531-7.4729 4.6217z"/></svg>