<?xml version="1.0" encoding="UTF-8"?>
<svg xmlns="http://www.w3.org/2000/svg" viewBox="0 0 512 512" width="512" height="512"><g id="Layer_20" data-name="Layer 20"><path d="M336.116,224a8,8,0,0,0,8-8V184a7.985,7.985,0,0,0-2.648-5.945l-80-72a7.989,7.989,0,0,0-10.7,0l-80,72A7.983,7.983,0,0,0,168.116,184v32a8,8,0,0,0,8,8Zm-8-16h-64V129.963l64,57.6Zm-144-20.438,64-57.6V208h-64Z"/><path d="M462.077,392.063A63.991,63.991,0,0,0,400.124,344h-.008V184h48a8,8,0,0,0,5.125-14.145l-192-160a8,8,0,0,0-10.25,0L192.116,58.919V16a8,8,0,0,0-8-8h-32a8,8,0,0,0-8,8V98.919L58.991,169.856A8,8,0,0,0,64.116,184h48v24a8,8,0,0,0,16,0V179.777l128-105.413,128,105.413V392h-56V368a8,8,0,0,0-16,0v24h-48V280h48v56a8,8,0,0,0,16,0V272a8,8,0,0,0-8-8h-128a8,8,0,0,0-8,8V392h-56V240a8,8,0,0,0-16,0V344a63.992,63.992,0,0,0-61.953,48.062A39.905,39.905,0,0,0,8.116,432v64a8,8,0,0,0,8,8h40a8,8,0,0,0,0-16h-32V472h464l0,16h-400a8,8,0,1,0,0,16H496.124a8,8,0,0,0,8-8V432A40,40,0,0,0,462.077,392.063ZM88.116,400v56h-64V432a24.026,24.026,0,0,1,24-24,23.781,23.781,0,0,1,6.336.984,8.006,8.006,0,0,0,10.055-6.765A47.963,47.963,0,0,1,112.116,360v32h-16A8,8,0,0,0,88.116,400Zm104,56h-88V408h88Zm8-176h48V392h-48Zm104,176h-96V440h96Zm0-32h-96V408h96Zm-144-400h16V72.252l-16,13.333ZM261.2,57.825a8.008,8.008,0,0,0-10.172,0L117.246,168H86.21L256.116,26.415,426.023,168H394.987ZM408.116,456h-88V408h88Zm80.005,0h-64V400a8,8,0,0,0-8-8h-16V360h.008a47.962,47.962,0,0,1,47.609,42.219,8.007,8.007,0,0,0,10.055,6.765,23.781,23.781,0,0,1,6.336-.984,24.026,24.026,0,0,1,24,24Z"/></g></svg>
