<svg clip-rule="evenodd" fill-rule="evenodd" height="512" stroke-linejoin="round" stroke-miterlimit="2" viewBox="0 0 32 32" width="512" xmlns="http://www.w3.org/2000/svg"><g transform="translate(-128 -80)"><g id="Icon"><g transform="translate(0 -34)"><path d="m135.014 145c5.08 0 12.894 0 17.975-.012 1.815 0 3.489-.989 4.366-2.582.876-1.59.818-3.53-.149-5.065-2.526-4.092-7.48-6.341-13.206-6.341-5.727 0-10.68 2.249-13.217 6.334-.97 1.533-1.029 3.482-.149 5.078.879 1.597 2.557 2.588 4.38 2.588zm0-2c-1.094 0-2.101-.595-2.629-1.553-.527-.958-.492-2.127.093-3.051.001-.002.003-.005.004-.007 2.201-3.544 6.549-5.389 11.518-5.389 4.967 0 9.315 1.843 11.505 5.393.002.004.004.007.006.01.582.92.617 2.084.092 3.038s-1.528 1.547-2.617 1.547c-.001 0-.002 0-.002 0-5.079.012-12.891.012-17.97.012z"/></g><g transform="translate(8 -48)"><path d="m136 129c-3.863 0-7 3.137-7 7s3.137 7 7 7 7-3.137 7-7-3.137-7-7-7zm0 2c2.76 0 5 2.24 5 5s-2.24 5-5 5-5-2.24-5-5 2.24-5 5-5z"/></g></g></g></svg>