<svg id="Layer_1" enable-background="new 0 0 512 512" height="512" viewBox="0 0 512 512" width="512" xmlns="http://www.w3.org/2000/svg"><g><g><path d="m256 253.7c-62 0-112.4-50.4-112.4-112.4s50.4-112.4 112.4-112.4 112.4 50.4 112.4 112.4-50.4 112.4-112.4 112.4zm0-195.8c-46 0-83.4 37.4-83.4 83.4s37.4 83.4 83.4 83.4 83.4-37.4 83.4-83.4-37.4-83.4-83.4-83.4z"/></g><g><path d="m452.1 483.2h-392.2c-8 0-14.5-6.5-14.5-14.5 0-106.9 94.5-193.9 210.6-193.9s210.6 87 210.6 193.9c0 8-6.5 14.5-14.5 14.5zm-377-29.1h361.7c-8.1-84.1-86.1-150.3-180.8-150.3s-172.7 66.2-180.9 150.3z"/></g></g></svg>