<svg id="Layer_1" enable-background="new 0 0 20 20" viewBox="0 0 20 20" xmlns="http://www.w3.org/2000/svg"><g><path d="m10 19.75c.44 0 .88-.04 1.31-.1 2.51-.34 4.79-1.62 6.37-3.66 1.34-1.69 2.07-3.82 2.07-5.99 0-5.38-4.37-9.75-9.75-9.75s-9.75 4.37-9.75 9.75c0 2.17.74 4.3 2.07 5.99 1.86 2.39 4.66 3.76 7.68 3.76zm0-8.21c-1.77 0-3.21-1.44-3.21-3.21s1.44-3.21 3.21-3.21 3.21 1.44 3.21 3.21-1.44 3.21-3.21 3.21zm6.12 3.96c-.04.05-.09.1-.13.15-.09.1-.19.19-.29.29-.12.12-.25.23-.37.34-.1.09-.2.17-.31.25-.13.1-.27.2-.41.3-.11.07-.22.15-.33.21-.14.09-.29.17-.44.25-.11.06-.23.12-.34.18-.16.07-.32.14-.48.2-.12.05-.23.09-.35.13-.17.06-.35.11-.52.15-.11.03-.23.07-.34.09-.2.04-.4.07-.6.1-.1.01-.19.04-.29.05-.3.03-.61.05-.92.05s-.61-.02-.91-.05c-.1-.01-.2-.03-.3-.05-.2-.03-.4-.06-.59-.1-.12-.03-.23-.06-.34-.09-.17-.05-.35-.09-.52-.15-.12-.04-.23-.09-.35-.13-.16-.06-.32-.13-.48-.2-.11-.05-.23-.11-.34-.17-.15-.08-.3-.16-.45-.25-.12-.07-.22-.15-.33-.22-.14-.1-.28-.2-.42-.3-.1-.08-.2-.16-.3-.24-.13-.11-.26-.23-.39-.36-.09-.09-.18-.18-.27-.27-.05-.05-.09-.1-.13-.15 1.16-1.29 3.47-2.47 6.12-2.47 2.66 0 4.97 1.18 6.12 2.46zm-6.12-13.75c4.55 0 8.25 3.7 8.25 8.25 0 1.52-.43 3.02-1.22 4.3-.93-.95-2.34-1.83-4.08-2.33 1.07-.86 1.76-2.17 1.76-3.64 0-2.6-2.11-4.71-4.71-4.71s-4.71 2.11-4.71 4.71c0 1.48.7 2.78 1.76 3.64-1.73.5-3.15 1.38-4.08 2.33-.79-1.28-1.22-2.78-1.22-4.3 0-4.55 3.7-8.25 8.25-8.25z" fill="#2d4356"/></g></svg>